<?xml version="1.0" standalone="no"?>
<!DOCTYPE svg PUBLIC "-//W3C//DTD SVG 20010904//EN"
 "http://www.w3.org/TR/2001/REC-SVG-20010904/DTD/svg10.dtd">
<svg version="1.0" xmlns="http://www.w3.org/2000/svg"
 width="720.000000pt" height="686.000000pt" viewBox="0 0 720.000000 686.000000"
 preserveAspectRatio="xMidYMid meet">

<g transform="translate(0.000000,686.000000) scale(0.100000,-0.100000)"
fill="#000000" stroke="none">
<path d="M3500 6593 c-346 -11 -599 -56 -935 -167 -344 -114 -642 -269 -910
-475 -258 -198 -549 -507 -731 -776 -333 -493 -492 -918 -575 -1530 -24 -180
-28 -481 -9 -659 13 -117 60 -359 96 -496 164 -612 619 -1265 1164 -1672 288
-215 445 -301 835 -461 194 -80 420 -133 750 -178 231 -32 623 -32 845 0 291
42 581 113 775 191 528 211 866 430 1216 786 170 174 266 290 378 457 197 297
302 516 396 832 52 176 57 197 91 397 20 121 27 200 31 375 8 312 -15 527 -87
831 -198 830 -729 1586 -1430 2037 -96 62 -367 203 -490 256 -122 52 -355 130
-490 163 -211 51 -619 100 -783 94 -29 -1 -90 -3 -137 -5z m282 -277 c231 -49
418 -226 504 -476 25 -72 25 -256 1 -347 -49 -181 -161 -344 -299 -436 -168
-111 -452 -128 -645 -38 -169 80 -304 249 -367 462 -39 130 -30 312 21 433 70
166 236 326 398 381 104 36 274 44 387 21z m-985 -801 c8 -27 19 -54 24 -59
26 -28 5 -44 -301 -229 -113 -68 -277 -168 -365 -222 -185 -113 -185 -113
-185 -89 0 11 -17 54 -38 97 l-38 77 95 59 c53 32 141 85 196 118 55 33 161
98 235 143 74 46 165 100 201 120 36 20 86 51 110 67 l44 31 3 -31 c2 -18 10
-54 19 -82z m1971 -61 c152 -92 311 -188 352 -214 151 -95 240 -153 240 -156
0 -2 -13 -22 -29 -44 -15 -21 -34 -60 -41 -85 -7 -25 -14 -45 -16 -45 -7 0
-201 114 -254 149 -30 21 -171 106 -312 191 -166 98 -258 159 -258 169 0 9 7
38 15 65 8 27 15 69 15 93 0 23 3 43 6 43 3 0 130 -75 282 -166z m-3279 -285
c142 -23 268 -126 311 -254 33 -99 26 -225 -17 -315 -18 -36 -51 -85 -75 -109
-153 -156 -439 -143 -598 25 -79 83 -95 127 -95 259 0 105 2 114 33 177 60
122 156 196 282 217 76 12 87 12 159 0z m4426 0 c217 -40 368 -237 336 -438
-22 -136 -108 -254 -229 -313 -63 -31 -73 -33 -172 -33 -97 0 -110 2 -170 31
-82 39 -121 72 -169 143 -58 86 -76 143 -76 241 0 72 4 93 28 141 51 106 182
205 299 228 61 12 87 12 153 0z m-2192 -461 c4 -46 7 -154 7 -240 l0 -158
-105 0 -105 0 0 240 0 240 99 0 98 0 6 -82z m-1707 -206 c38 -21 204 -119 369
-219 165 -99 343 -204 395 -233 52 -29 110 -62 128 -72 l32 -20 -19 -26 c-10
-15 -33 -55 -50 -90 l-31 -62 -53 26 c-109 56 -335 187 -532 309 -55 34 -158
95 -230 135 -71 40 -144 83 -162 96 l-31 24 35 37 c19 21 44 59 56 86 12 26
22 47 23 47 1 0 32 -17 70 -38z m3335 -18 c17 -30 46 -67 65 -82 l33 -26 -77
-49 c-42 -28 -167 -102 -277 -165 -110 -63 -285 -165 -390 -227 -227 -134
-274 -160 -277 -154 -12 18 -88 177 -88 182 0 6 73 50 440 265 80 47 231 136
335 198 105 63 193 114 197 114 4 0 22 -25 39 -56z m-3910 -282 l47 5 6 -231
c7 -244 4 -691 -4 -699 -3 -3 -49 -7 -102 -9 l-98 -4 -2 161 c-5 428 -5 733
-1 761 l5 31 51 -9 c29 -6 73 -8 98 -6z m4529 -473 l0 -476 -67 13 c-38 7 -84
13 -104 14 l-36 0 -6 227 c-8 271 -9 650 -1 678 5 18 14 20 110 20 l104 1 0
-477z m-2185 419 c28 -5 82 -25 120 -44 214 -104 376 -311 405 -520 55 -389
-146 -726 -491 -821 -100 -28 -301 -25 -399 5 -282 89 -480 368 -480 678 0
209 56 356 192 500 159 168 305 229 518 218 47 -3 108 -10 135 -16z m-957
-1000 c3 -13 22 -56 43 -96 l37 -72 -74 -51 c-41 -27 -123 -78 -182 -113 -59
-34 -156 -93 -216 -129 -59 -37 -110 -67 -111 -67 -2 0 -6 15 -9 33 -4 17 -21
61 -39 97 l-32 65 75 46 c298 183 457 283 470 295 20 20 31 17 38 -8z m1637 3
c5 -9 408 -253 512 -311 l41 -23 -33 -61 c-18 -33 -38 -78 -45 -98 -6 -21 -13
-38 -15 -38 -3 0 -31 17 -64 38 -33 20 -128 75 -211 122 -188 106 -300 177
-300 190 0 5 13 31 29 57 16 27 35 67 42 91 11 39 31 54 44 33z m1495 -62
c111 -28 189 -71 274 -150 140 -130 206 -261 224 -439 20 -191 -16 -346 -113
-496 -94 -144 -212 -240 -355 -285 -154 -50 -395 -29 -549 47 -110 55 -234
181 -289 294 -61 128 -76 193 -76 345 -1 109 3 142 22 205 51 163 151 304 269
383 83 55 202 105 281 116 77 12 220 3 312 -20z m-4260 -7 c158 -52 331 -199
408 -348 72 -139 100 -318 72 -463 -13 -69 -62 -191 -107 -265 -44 -72 -135
-165 -206 -210 -199 -125 -482 -141 -697 -39 -58 28 -94 55 -161 122 -169 169
-237 345 -227 580 9 176 78 323 222 467 92 91 184 142 301 168 102 22 308 16
395 -12z m2030 -1034 l0 -518 -100 0 -100 0 -1 38 c-1 20 -4 253 -8 517 l-6
480 107 0 108 0 0 -517z m1333 -160 c14 -24 42 -61 62 -82 19 -22 32 -42 28
-45 -49 -37 -192 -126 -243 -151 -36 -18 -164 -92 -286 -165 -199 -120 -454
-261 -458 -253 -24 52 -56 109 -76 132 l-24 29 29 22 c15 13 87 56 159 95 72
40 218 124 324 189 171 103 454 271 459 271 0 0 12 -19 26 -42z m-2596 -112
c39 -19 109 -60 155 -89 46 -29 188 -109 316 -178 127 -68 242 -131 254 -140
l22 -17 -34 -38 c-18 -21 -41 -57 -52 -80 l-18 -43 -147 70 c-143 68 -266 134
-388 209 -33 21 -133 76 -222 123 -89 47 -187 103 -218 123 l-55 37 51 52 c28
29 60 66 71 83 l19 31 87 -53 c48 -30 119 -70 159 -90z m1359 -441 c77 -38
167 -128 201 -202 38 -83 44 -212 13 -302 -25 -75 -78 -159 -123 -197 -48 -41
-148 -84 -222 -96 -268 -45 -511 179 -493 453 7 121 111 290 206 335 74 35
125 43 243 41 104 -3 121 -6 175 -32z"/>
<path d="M3532 6104 c-208 -104 -195 -415 20 -479 65 -19 81 -19 147 1 136 40
205 189 156 335 -33 95 -131 169 -225 169 -30 0 -65 -9 -98 -26z"/>
<path d="M3766 5478 c-37 -20 -78 -33 -110 -36 -47 -4 -75 2 -203 40 -39 11
-47 10 -88 -10 -46 -22 -135 -97 -135 -114 0 -5 21 -31 47 -59 87 -93 267
-159 395 -144 69 7 156 36 212 69 48 29 156 123 156 137 0 14 -79 86 -126 113
-64 39 -82 39 -148 4z"/>
<path d="M1405 4995 c-5 -2 -27 -6 -48 -10 -45 -7 -114 -65 -134 -112 -30 -73
-7 -189 48 -240 83 -76 260 -68 315 13 33 48 44 82 44 135 0 97 -57 178 -144
204 -49 15 -62 16 -81 10z"/>
<path d="M5745 4966 c-112 -53 -146 -196 -73 -307 28 -42 117 -89 170 -89 20
0 57 7 80 16 174 68 185 292 19 377 -69 34 -128 35 -196 3z"/>
<path d="M3554 3880 c-45 -14 -116 -80 -142 -132 -40 -82 -23 -216 36 -281 9
-11 40 -31 67 -45 69 -35 160 -35 230 1 92 46 125 104 125 214 0 73 -28 151
-66 185 -55 49 -184 78 -250 58z"/>
<path d="M3354 3273 c-49 -28 -144 -107 -144 -119 0 -6 10 -24 22 -40 98 -126
285 -197 463 -174 124 16 212 58 319 152 l49 44 -44 48 c-51 56 -132 106 -171
106 -15 0 -58 -16 -95 -36 -62 -33 -74 -36 -128 -31 -33 2 -89 17 -125 32 -85
36 -109 39 -146 18z"/>
<path d="M5693 2825 c-49 -21 -124 -95 -146 -145 -46 -104 -10 -239 79 -299
106 -70 270 -56 351 31 58 61 71 184 29 273 -56 121 -205 187 -313 140z"/>
<path d="M5468 2197 c-32 -17 -76 -49 -99 -70 -48 -44 -49 -43 50 -116 205
-151 380 -176 576 -81 74 36 215 141 215 160 0 12 -76 78 -128 111 -58 37 -87
36 -172 -1 -116 -51 -174 -50 -296 6 -68 31 -77 30 -146 -9z"/>
<path d="M1382 2815 c-76 -33 -137 -107 -156 -189 -9 -35 10 -129 35 -179 55
-107 222 -145 351 -81 56 28 81 59 104 126 30 92 4 217 -58 275 -62 58 -198
82 -276 48z"/>
<path d="M1670 2225 c-46 -27 -152 -55 -205 -55 -32 0 -82 10 -123 25 -81 29
-111 31 -155 9 -56 -28 -137 -96 -137 -114 0 -28 149 -140 231 -174 69 -29 83
-31 194 -31 109 0 126 3 188 29 76 32 162 86 222 140 l40 36 -55 51 c-53 49
-136 99 -162 99 -7 -1 -24 -7 -38 -15z"/>
<path d="M3548 1180 c-52 -15 -98 -52 -125 -97 -21 -36 -26 -57 -26 -111 0
-142 76 -227 213 -239 99 -9 198 51 237 146 24 57 20 151 -8 202 -34 61 -127
109 -207 108 -32 0 -69 -4 -84 -9z"/>
</g>
</svg>
